<svg width="15.500000" height="15.406250" viewBox="0 0 15.5 15.4062" fill="none" xmlns="http://www.w3.org/2000/svg" xmlns:xlink="http://www.w3.org/1999/xlink">
	<desc>
			Created with Pixso.
	</desc>
	<defs/>
	<path d="M7.75 0C12.03 0 15.5 3.46 15.5 7.75C15.5 11.62 12.65 14.84 8.93 15.4L8.93 10L10.75 10L11.09 7.75L8.93 7.75L8.93 6.31C8.93 5.68 9.25 5.09 10.21 5.09L11.18 5.09L11.18 3.18C11.18 3.18 10.31 3.03 9.43 3.03C7.68 3.03 6.53 4.12 6.53 6.06L6.53 7.75L4.56 7.75L4.56 10L6.53 10L6.53 15.4C2.81 14.84 0 11.62 0 7.75C0 3.46 3.46 0 7.75 0Z" fill="#707070" fill-opacity="1.000000" fill-rule="evenodd"/>
</svg>
