<svg width="37.000000" height="29.000000" viewBox="0 0 37 29" fill="none" xmlns="http://www.w3.org/2000/svg" xmlns:xlink="http://www.w3.org/1999/xlink">
	<desc>
			Created with Pixso.
	</desc>
	<defs/>
	<path d="M35.45 26L1.54 26C0.69 26 0 26.67 0 27.5C0 28.32 0.69 29 1.54 29L35.45 29C36.3 29 37 28.32 37 27.5C37 26.67 36.3 26 35.45 26Z" fill="#000000" fill-opacity="1.000000" fill-rule="nonzero"/>
	<path d="M35.5 0L14.5 0C13.67 0 13 0.67 13 1.5C13 2.32 13.67 3 14.5 3L35.5 3C36.32 3 37 2.32 37 1.5C37 0.67 36.32 0 35.5 0Z" fill="#000000" fill-opacity="1.000000" fill-rule="nonzero"/>
	<path d="M35.45 9L1.54 9C0.69 9 0 9.67 0 10.5C0 11.32 0.69 12 1.54 12L35.45 12C36.3 12 37 11.32 37 10.5C37 9.67 36.3 9 35.45 9Z" fill="#000000" fill-opacity="1.000000" fill-rule="nonzero"/>
	<path d="M35.5 18L14.5 18C13.67 18 13 18.67 13 19.5C13 20.32 13.67 21 14.5 21L35.5 21C36.32 21 37 20.32 37 19.5C37 18.67 36.32 18 35.5 18Z" fill="#000000" fill-opacity="1.000000" fill-rule="nonzero"/>
</svg>
