<svg width="14.000000" height="14.000000" viewBox="0 0 14 14" fill="none" xmlns="http://www.w3.org/2000/svg" xmlns:xlink="http://www.w3.org/1999/xlink">
	<desc>
			Created with Pixso.
	</desc>
	<defs/>
	<path d="M12.82 1.17C13.64 1.98 13.89 2.98 13.95 4.1C14.01 5.26 14.01 8.73 13.95 9.89C13.89 11.01 13.64 11.98 12.82 12.82C12.01 13.64 11.01 13.89 9.89 13.95C8.73 14.01 5.26 14.01 4.1 13.95C2.98 13.89 2.01 13.64 1.17 12.82C0.35 11.98 0.1 11.01 0.04 9.89C-0.02 8.73 -0.02 5.26 0.04 4.1C0.1 2.98 0.35 1.98 1.17 1.17C2.01 0.35 2.98 0.1 4.1 0.04C5.26 -0.02 8.73 -0.02 9.89 0.04C11.01 0.1 12.01 0.35 12.82 1.17ZM11.14 12.45C11.73 12.2 12.23 11.73 12.45 11.1C12.77 10.33 12.75 8.64 12.73 7.51C12.73 7.32 12.73 7.13 12.73 6.98C12.73 6.83 12.73 6.65 12.73 6.46C12.75 5.35 12.77 3.65 12.45 2.85C12.2 2.26 11.73 1.76 11.14 1.54C10.34 1.22 8.64 1.24 7.53 1.26C7.34 1.26 7.16 1.26 7.01 1.26C6.86 1.26 6.67 1.26 6.48 1.26C5.35 1.24 3.66 1.22 2.89 1.54C2.26 1.79 1.79 2.26 1.54 2.85C1.22 3.65 1.24 5.35 1.26 6.46C1.26 6.65 1.26 6.83 1.26 6.98C1.26 7.13 1.26 7.32 1.26 7.51C1.24 8.64 1.22 10.33 1.54 11.1C1.79 11.73 2.26 12.2 2.89 12.45C3.66 12.77 5.35 12.75 6.48 12.73C6.67 12.73 6.86 12.73 7.01 12.73C7.16 12.73 7.34 12.73 7.53 12.73C8.64 12.75 10.34 12.77 11.14 12.45ZM10.73 2.42C11.2 2.42 11.57 2.79 11.57 3.26C11.57 3.73 11.2 4.1 10.73 4.1C10.26 4.1 9.89 3.73 9.89 3.26C9.89 2.79 10.26 2.42 10.73 2.42ZM3.42 6.98C3.42 5.01 5.01 3.39 7.01 3.39C8.98 3.39 10.6 5.01 10.6 6.98C10.6 8.98 8.98 10.57 7.01 10.57C5.01 10.57 3.42 8.98 3.42 6.98ZM4.67 6.98C4.67 8.29 5.73 9.32 7.01 9.32C8.29 9.32 9.32 8.29 9.32 6.98C9.32 5.7 8.29 4.67 7.01 4.67C5.7 4.67 4.67 5.7 4.67 6.98Z" fill="#707070" fill-opacity="1.000000" fill-rule="evenodd"/>
</svg>
