<svg width="15.500000" height="15.500000" viewBox="0 0 15.5 15.5" fill="none" xmlns="http://www.w3.org/2000/svg" xmlns:xlink="http://www.w3.org/1999/xlink">
	<desc>
			Created with Pixso.
	</desc>
	<defs/>
	<path d="M7.75 0C12.03 0 15.5 3.46 15.5 7.75C15.5 12.03 12.03 15.5 7.75 15.5C6.93 15.5 6.15 15.4 5.43 15.15C5.75 14.65 6.21 13.81 6.4 13.12C6.5 12.78 6.87 11.28 6.87 11.28C7.12 11.78 7.87 12.18 8.65 12.18C11 12.18 12.68 10.03 12.68 7.37C12.68 4.81 10.59 2.87 7.9 2.87C4.56 2.87 2.78 5.12 2.78 7.56C2.78 8.71 3.37 10.12 4.34 10.59C4.5 10.65 4.59 10.62 4.62 10.46C4.62 10.37 4.78 9.84 4.84 9.59C4.84 9.53 4.84 9.43 4.78 9.37C4.46 9 4.21 8.28 4.21 7.59C4.21 5.9 5.5 4.25 7.71 4.25C9.59 4.25 10.93 5.53 10.93 7.4C10.93 9.5 9.87 10.93 8.5 10.93C7.75 10.93 7.18 10.31 7.34 9.56C7.56 8.62 8 7.62 8 6.96C8 6.37 7.68 5.87 7.03 5.87C6.25 5.87 5.62 6.68 5.62 7.75C5.62 8.43 5.84 8.9 5.84 8.9C5.84 8.9 5.09 12.15 4.93 12.75C4.78 13.43 4.84 14.37 4.9 14.96C2.03 13.84 0 11.06 0 7.75C0 3.46 3.46 0 7.75 0Z" fill="#707070" fill-opacity="1.000000" fill-rule="evenodd"/>
</svg>
