<svg width="17.000000" height="17.000000" viewBox="0 0 17 17" fill="none" xmlns="http://www.w3.org/2000/svg" xmlns:xlink="http://www.w3.org/1999/xlink">
	<desc>
			Created with Pixso.
	</desc>
	<defs/>
	<path id="Shape" d="M16.7922 15.7908L11.958 10.9565C12.8943 9.7998 13.4583 8.33008 13.4583 6.72925C13.4583 3.01904 10.4392 0 6.729 0C3.0188 0 0 3.0188 0 6.72925C0 10.4395 3.0188 13.4583 6.729 13.4583C8.32983 13.4583 9.7998 12.8945 10.9563 11.958L15.7908 16.7925C15.9287 16.9307 16.1101 17 16.2915 17C16.4729 17 16.6541 16.9307 16.7922 16.7925C17.0693 16.5154 17.0693 16.0679 16.7922 15.7908ZM1.41675 6.72925C1.41675 9.65894 3.79956 12.0417 6.729 12.0417C9.65869 12.0417 12.0415 9.65894 12.0415 6.72925C12.0415 3.79956 9.65869 1.41675 6.729 1.41675C3.79956 1.41675 1.41675 3.79956 1.41675 6.72925Z" clip-rule="evenodd" fill="#5A5A5A" fill-opacity="1.000000" fill-rule="evenodd"/>
</svg>
