<svg width="17.093750" height="12.000000" viewBox="0 0 17.0938 12" fill="none" xmlns="http://www.w3.org/2000/svg" xmlns:xlink="http://www.w3.org/1999/xlink">
	<desc>
			Created with Pixso.
	</desc>
	<defs/>
	<path d="M15.21 0.37C15.93 0.56 16.53 1.15 16.71 1.9C17.09 3.21 17.09 6.03 17.09 6.03C17.09 6.03 17.09 8.81 16.71 10.15C16.53 10.9 15.93 11.46 15.21 11.65C13.87 12 8.56 12 8.56 12C8.56 12 3.21 12 1.87 11.65C1.15 11.46 0.56 10.9 0.37 10.15C0 8.81 0 6.03 0 6.03C0 6.03 0 3.21 0.37 1.9C0.56 1.15 1.15 0.56 1.87 0.37C3.21 0 8.56 0 8.56 0C8.56 0 13.87 0 15.21 0.37ZM11.25 6.03L6.81 3.5L6.81 8.56L11.25 6.03Z" fill="#707070" fill-opacity="1.000000" fill-rule="evenodd"/>
</svg>
